<?xml version="1.0" standalone="no"?>
<!DOCTYPE svg PUBLIC "-//W3C//DTD SVG 20010904//EN"
 "http://www.w3.org/TR/2001/REC-SVG-20010904/DTD/svg10.dtd">
<svg version="1.0" xmlns="http://www.w3.org/2000/svg"
 width="512.000000pt" height="512.000000pt" viewBox="0 0 512.000000 512.000000"
 preserveAspectRatio="xMidYMid meet">
<metadata>
Created by potrace 1.11, written by Peter Selinger 2001-2013
</metadata>
<g transform="translate(0.000000,512.000000) scale(0.100000,-0.100000)"
fill="#000000" stroke="none">
<path d="M1500 5103 c-97 -34 -169 -106 -203 -203 -13 -37 -16 -87 -14 -275 2
-222 3 -232 27 -280 41 -84 122 -152 202 -171 18 -4 36 -9 41 -10 4 -1 88 -2
187 -3 l180 -1 0 -160 0 -160 -640 0 -640 0 -303 -405 c-334 -445 -345 -464
-334 -576 10 -92 33 -143 90 -201 125 -126 327 -128 453 -4 12 12 40 49 64 84
l42 63 23 -49 c54 -116 151 -183 270 -188 148 -6 275 80 317 215 15 49 24 52
33 11 17 -77 88 -160 170 -199 63 -30 170 -36 235 -14 96 33 173 110 202 202
15 49 24 52 33 11 17 -77 88 -160 170 -199 63 -30 170 -36 235 -14 96 33 173
110 202 202 13 41 28 55 28 26 0 -30 44 -108 84 -149 165 -167 459 -99 528
123 13 41 28 55 28 26 0 -56 96 -179 163 -209 114 -50 232 -44 322 17 68 46
135 144 135 197 0 11 5 20 10 20 6 0 10 -9 10 -20 0 -36 43 -113 86 -156 65
-64 124 -88 219 -88 134 -1 224 55 285 177 l29 59 37 -58 c42 -66 98 -123 137
-141 15 -7 39 -19 54 -25 14 -7 62 -13 107 -12 96 0 156 24 221 89 66 66 89
124 89 225 0 64 -4 95 -19 125 -11 22 -154 219 -317 438 l-298 397 -640 0
-640 0 0 159 0 159 203 4 c200 3 203 3 256 32 85 44 136 103 165 192 14 42 17
89 16 257 -1 120 -6 222 -13 244 -25 86 -91 163 -175 204 l-47 24 -1030 2
c-916 2 -1035 0 -1075 -14z m420 -263 l0 -40 -120 0 -120 0 0 -40 0 -40 120 0
120 0 0 -120 0 -120 -160 0 -160 0 0 40 0 40 120 0 120 0 0 40 0 40 -120 0
-120 0 0 120 0 120 160 0 160 0 0 -40z m240 -40 l0 -80 80 0 80 0 0 80 0 80
40 0 40 0 0 -200 0 -200 -40 0 -40 0 0 80 0 80 -80 0 -80 0 0 -80 0 -80 -40 0
-40 0 0 200 0 200 40 0 40 0 0 -80z m800 -120 l0 -200 -200 0 -200 0 0 200 0
200 200 0 200 0 0 -200z m560 80 l0 -120 -160 0 -160 0 0 -80 0 -80 -40 0 -40
0 0 200 0 200 200 0 200 0 0 -120z m-640 -760 l0 -160 -320 0 -320 0 0 160 0
160 320 0 320 0 0 -160z"/>
<path d="M2640 4680 l0 -120 120 0 120 0 0 120 0 120 -120 0 -120 0 0 -120z"/>
<path d="M3200 4760 l0 -40 120 0 120 0 0 40 0 40 -120 0 -120 0 0 -40z"/>
<path d="M640 1520 l0 -880 1920 0 1920 0 0 880 0 880 -1920 0 -1920 0 0 -880z
m1280 0 l0 -560 -480 0 -480 0 0 560 0 560 480 0 480 0 0 -560z m2240 0 l0
-560 -960 0 -960 0 0 560 0 560 960 0 960 0 0 -560z"/>
<path d="M1214 1745 c-82 -36 -118 -144 -75 -223 19 -36 76 -72 122 -78 58 -7
109 15 146 63 23 30 28 46 28 92 -1 64 -20 100 -71 135 -39 26 -105 31 -150
11z"/>
<path d="M350 461 c-191 -61 -323 -216 -345 -405 l-7 -56 2562 0 2561 0 -6 56
c-16 146 -104 281 -236 359 -116 68 53 64 -2324 63 -2016 0 -2153 -1 -2205
-17z"/>
</g>
</svg>
