<?xml version="1.0" encoding="iso-8859-1"?>
<!-- Generator: Adobe Illustrator 16.0.0, SVG Export Plug-In . SVG Version: 6.00 Build 0)  -->
<!DOCTYPE svg PUBLIC "-//W3C//DTD SVG 1.1//EN" "http://www.w3.org/Graphics/SVG/1.1/DTD/svg11.dtd">
<svg version="1.1" id="Capa_1" xmlns="http://www.w3.org/2000/svg" xmlns:xlink="http://www.w3.org/1999/xlink" x="0px" y="0px"
	 width="485.211px" height="485.211px" viewBox="0 0 485.211 485.211" style="enable-background:new 0 0 485.211 485.211;"
	 xml:space="preserve">
<g>
	<path d="M0,90.976v303.259h485.211V90.976H0z M454.889,363.904H30.327V121.303h424.562V363.904z M90.978,348.746h115.632
		c-23.602-20.554-39.815-60.122-39.815-106.142c0-46.021,16.213-85.587,39.815-106.139H90.978c0,25.142-20.376,45.488-45.488,45.488
		v121.302C70.601,303.256,90.978,323.604,90.978,348.746z M113.723,219.86c12.557,0,22.743,10.19,22.743,22.745
		c0,12.557-10.186,22.745-22.743,22.745c-12.559,0-22.745-10.188-22.745-22.745C90.978,230.05,101.164,219.86,113.723,219.86z
		 M278.59,348.746h115.646c0-25.142,20.376-45.49,45.485-45.49V181.954c-25.109,0-45.485-20.346-45.485-45.488H278.59
		c23.634,20.552,39.833,60.117,39.833,106.139C318.423,288.624,302.224,328.192,278.59,348.746z M371.492,219.86
		c12.555,0,22.743,10.19,22.743,22.745c0,12.557-10.188,22.745-22.743,22.745c-12.563,0-22.747-10.188-22.747-22.745
		C348.745,230.05,358.929,219.86,371.492,219.86z M204.7,227.444c0,16.699,13.593,22.743,22.743,22.743h7.584v30.322h-22.745
		c-4.177,0-7.582,3.411-7.582,7.584c0,4.177,3.405,7.584,7.582,7.584h22.745v7.579c0,4.177,3.405,7.584,7.58,7.584
		c4.177,0,7.579-3.407,7.579-7.584v-7.579h7.584c9.152,0,22.747-6.044,22.747-22.748v-15.158c0-16.706-13.595-22.745-22.747-22.745
		h-7.584v-30.327h22.747c4.173,0,7.584-3.405,7.584-7.582c0-4.177-3.411-7.58-7.584-7.58h-22.747v-7.584
		c0-4.174-3.402-7.582-7.579-7.582c-4.175,0-7.58,3.407-7.58,7.582v7.584h-7.584c-9.15,0-22.743,6.04-22.743,22.743V227.444z
		 M250.186,250.187h7.584c3.407,0.089,7.579,1.484,7.579,7.584v15.158c0,6.105-4.172,7.496-7.579,7.58h-7.584V250.187z
		 M219.861,212.28c0-6.102,4.177-7.493,7.582-7.582h7.584v30.327h-7.584c-3.405-0.089-7.582-1.481-7.582-7.582V212.28z"/>
</g>
<g>
</g>
<g>
</g>
<g>
</g>
<g>
</g>
<g>
</g>
<g>
</g>
<g>
</g>
<g>
</g>
<g>
</g>
<g>
</g>
<g>
</g>
<g>
</g>
<g>
</g>
<g>
</g>
<g>
</g>
</svg>
