<?xml version="1.0" encoding="UTF-8" standalone="no"?>
<svg width="57px" height="64px" viewBox="0 0 57 64" version="1.1" xmlns="http://www.w3.org/2000/svg" xmlns:xlink="http://www.w3.org/1999/xlink" xmlns:sketch="http://www.bohemiancoding.com/sketch/ns">
    <!-- Generator: Sketch 3.0.3 (7891) - http://www.bohemiancoding.com/sketch -->
    <title>Logout</title>
    <desc>Created with Sketch.</desc>
    <defs></defs>
    <g id="Page-1" stroke="none" stroke-width="1" fill="none" fill-rule="evenodd" sketch:type="MSPage">
        <g id="Logout" sketch:type="MSLayerGroup" transform="translate(1.000000, 1.000000)" stroke="#6B6C6E" stroke-width="2">
            <path d="M38,32 L38,52 C38,53.1 37.1,54 36,54 L32.4,54" id="Shape" sketch:type="MSShapeGroup"></path>
            <path d="M1.9,0 L36,0 C37.1,0 38,0.9 38,2 L38,26" id="Shape" sketch:type="MSShapeGroup"></path>
            <path d="M0,2 C0,0.9 0.9,0 2,0 L30.1,8 C31.2,8 32.1,8.9 32.1,10 L32.1,60 C32.1,61.1 31.2,62 30.1,62 L2,54 C0.9,54 0,53.1 0,52 L0,2 L0,2 Z" id="Shape" sketch:type="MSShapeGroup"></path>
            <circle id="Oval" sketch:type="MSShapeGroup" cx="25.5" cy="34.5" r="1.5"></circle>
            <g id="Group" transform="translate(35.000000, 20.000000)" sketch:type="MSShapeGroup">
                <path d="M13.2,13.7 L13.2,17.4 C13.2,17.7 13,18 12.6,18 L0.9,10.2 C0.6,10 0.3,9.9 0.3,9.6 L0.3,8.5 C0.3,8.3 0.5,8.1 0.9,7.9 L12.6,0 C12.9,0 13.1,0.3 13.1,0.6 L13.1,4" id="Shape"></path>
                <path d="M11.3,5 L21,5" id="Shape"></path>
                <path d="M11.3,13 L21,13" id="Shape"></path>
            </g>
        </g>
    </g>
</svg>